<?xml version="1.0" encoding="UTF-8"?>
<svg id="icon" xmlns="http://www.w3.org/2000/svg" viewBox="0 0 32 32">
  <defs>
    <style>
      .cls-1 {
        fill: none;
      }
    </style>
  </defs>
  <path d="M27,25h-6c-1.7,0-3,1.3-3,3v2h2v-2c0-.6.4-1,1-1h6c.6,0,1,.4,1,1v2h2v-2c0-1.7-1.3-3-3-3Z"/>
  <path d="M20,20c0,2.2,1.8,4,4,4s4-1.8,4-4-1.8-4-4-4-4,1.8-4,4ZM26,20c0,1.1-.9,2-2,2s-2-.9-2-2,.9-2,2-2,2,.9,2,2Z"/>
  <path d="M6,21v-1h-2v1c0,3.9,3.1,7,7,7h3v-2h-3c-2.8,0-5-2.2-5-5Z"/>
  <path d="M11,11h-6c-1.7,0-3,1.3-3,3v2h2v-2c0-.6.4-1,1-1h6c.6,0,1,.4,1,1v2h2v-2c0-1.7-1.3-3-3-3Z"/>
  <path d="M8,10c2.2,0,4-1.8,4-4s-1.8-4-4-4-4,1.8-4,4,1.8,4,4,4ZM8,4c1.1,0,2,.9,2,2s-.9,2-2,2-2-.9-2-2,.9-2,2-2Z"/>
  <polygon points="29 4.41 27.59 3 24 6.59 20.41 3 19 4.41 22.59 8 19 11.59 20.41 13 24 9.41 27.59 13 29 11.59 25.41 8 29 4.41"/>
  <rect id="_Transparent_Rectangle_" data-name=" Transparent Rectangle " class="cls-1" width="32" height="32"/>
</svg>