<?xml version="1.0" encoding="UTF-8"?>
<svg id="icon" xmlns="http://www.w3.org/2000/svg" version="1.1" viewBox="0 0 32 32">
  <!-- Generator: Adobe Illustrator 29.6.1, SVG Export Plug-In . SVG Version: 2.1.1 Build 9)  -->
  <defs>
    <style>
      .st0 {
        fill: none;
      }

      .st1 {
        fill: #667085;
      }
    </style>
  </defs>
  <path class="st1" d="M23,23v6c0,1.1.9,2,2,2h4c1.1,0,2-.9,2-2v-6c0-1.1-.9-2-2-2h-1v-10h1c1.1,0,2-.9,2-2V3c0-1.1-.9-2-2-2h-4c-1.1,0-2,.9-2,2v6c0,1.1.9,2,2,2h1v4H6c-1.1,0-2,.9-2,2v4h-1c-1.1,0-2,.9-2,2v6c0,1.1.9,2,2,2h4c1.1,0,2-.9,2-2v-6c0-1.1-.9-2-2-2h-1v-4h9v4h-1c-1.1,0-2,.9-2,2v6c0,1.1.9,2,2,2h4c1.1,0,2-.9,2-2v-6c0-1.1-.9-2-2-2h-1v-4h9v4h-1c-1.1,0-2,.9-2,2ZM29,23v6h-4v-6h4ZM25,9V3h4v6h-4ZM7,23v6H3v-6h4ZM18,23v6h-4v-6h4Z"/>
  <g>
    <circle class="st1" cx="14" cy="6" r="1.62"/>
    <path class="st1" d="M20.32,5.58c-1.03-2.61-3.51-4.36-6.32-4.45-2.81.09-5.29,1.84-6.32,4.45l-.18.42.18.42c1.03,2.61,3.51,4.36,6.32,4.45,2.81-.09,5.29-1.84,6.32-4.45l.18-.42-.18-.42ZM14,9.25c-1.79,0-3.25-1.45-3.25-3.25s1.45-3.25,3.25-3.25,3.25,1.45,3.25,3.25-1.46,3.25-3.25,3.25Z"/>
  </g>
  <rect id="_Transparent_Rectangle_" class="st0" width="32" height="32"/>
</svg>